# xmcd
#
# Track frame offsets:
#	150
#	18782
#	35529
#	51904
#	69333
#	89854
#	109383
#	131315
#	149281
#	167787
#	187163
#	204542
#	228269
#	251261
#	271296
#
# Disc length: 3883 seconds
# Revision: 0
# Processed by: cddbd v1.5.2PL0 Copyright (c) Steve Scherf et al.
# Submitted via: dBpowerAMP V12.0
#
DISCID=d60f290f
DTITLE=Various Artist - Voices of Love
DYEAR=1900
DGENRE=Jazz
TTITLE0=Susan Wong - When You Say Nothing at All
TTITLE1=Julienne Taylor - I Know I Loved You
TTITLE2=Katie Melua - I Cried for You
TTITLE3=Chantal Chamberland - How Deep Is Your Love
TTITLE4=Cheryl Bentyne - Don't Know Why
TTITLE5=Stacey Kent - You've Got a Friend
TTITLE6=Clare Teal - Chasing Cars
TTITLE7=Emi Fujita - Wishes
TTITLE8=Olivia Ong - Sometimes When We Touch
TTITLE9=Ann Sally - I Wish You Love
TTITLE10=Chlara - Stuck on You
TTITLE11=Dana Sedgwick - I Can't Make You Love Me
TTITLE12=Mikaela Kahn - Autumn Leaves
TTITLE13=Woong San - Yesterday
TTITLE14=Carol Kidd - When I Dream
EXTD=
EXTT0=
EXTT1=
EXTT2=
EXTT3=
EXTT4=
EXTT5=
EXTT6=
EXTT7=
EXTT8=
EXTT9=
EXTT10=
EXTT11=
EXTT12=
EXTT13=
EXTT14=
PLAYORDER=
